<?xml version="1.0" encoding="utf-8" ?>
<svg baseProfile="full" height="100%" version="1.1" width="100%" xmlns="http://www.w3.org/2000/svg" xmlns:ev="http://www.w3.org/2001/xml-events" xmlns:xlink="http://www.w3.org/1999/xlink"><defs><style type="text/css"><![CDATA[
    .textbox_style {stroke-width:1.0; stroke:lightgray; fill:none}
    .text_style    {font-size:5px; font-family:'Palatino Linotype'}
]]></style></defs><g /><g id="0"><rect fill="white" height="1.9cm" stroke="red" width="7.6cm" x="1cm" y="1cm" /><image height="1.9cm" width="3.2cm" x="1.0cm" xlink:href="images/athleta.png" y="1cm" /><image height="2cm" width="2cm" x="4.7cm" xlink:href="images/athleta_logo_260x180.png" y="1.2cm" /><text class="text_style" id="text1" x="6.7cm" y="1.55cm">2,000 - 3,000 SF</text><text class="text_style" id="text2" x="6.7cm" y="1.75cm">DC/BALTIMORE REGION</text><text class="text_style" id="text3" x="4.9cm" y="2.8cm">SPORTS APPAREL</text></g><g id="1"><rect fill="white" height="1.9cm" stroke="red" width="7.6cm" x="9.2cm" y="1cm" /><image height="1.9cm" width="3.2cm" x="9.2cm" xlink:href="images/h and m.png" y="1cm" /><image height="2cm" width="2cm" x="12.899999999999999cm" xlink:href="images/athleta_logo_260x180.png" y="1.2cm" /><text class="text_style" id="text1" x="14.899999999999999cm" y="1.55cm">4,500 - 5,500 SF</text><text class="text_style" id="text2" x="14.899999999999999cm" y="1.75cm">WASHINGTON, DC REGION</text><text class="text_style" id="text3" x="13.1cm" y="2.8cm">APPAREL</text></g><g id="2"><rect fill="white" height="1.9cm" stroke="red" width="7.6cm" x="17.4cm" y="1cm" /><image height="1.9cm" width="3.2cm" x="17.4cm" xlink:href="images/intermix.png" y="1cm" /><image height="2cm" width="2cm" x="21.099999999999998cm" xlink:href="images/athleta_logo_260x180.png" y="1.2cm" /><text class="text_style" id="text1" x="23.099999999999998cm" y="1.55cm">3,000 - 4,000 SF</text><text class="text_style" id="text2" x="23.099999999999998cm" y="1.75cm">DC/BALTIMORE REGION</text><text class="text_style" id="text3" x="21.299999999999997cm" y="2.8cm">TOP DESIGNER AND LUXURY BRAND FASHION</text></g><g id="3"><rect fill="white" height="1.9cm" stroke="red" width="7.6cm" x="1cm" y="3.0cm" /><image height="1.9cm" width="3.2cm" x="1.0cm" xlink:href="images/old navy.png" y="3.0cm" /><image height="2cm" width="2cm" x="4.7cm" xlink:href="images/athleta_logo_260x180.png" y="3.2cm" /><text class="text_style" id="text1" x="6.7cm" y="3.55cm">12,500 - 17,000 SF</text><text class="text_style" id="text2" x="6.7cm" y="3.75cm">DC/BALTIMORE REGION</text><text class="text_style" id="text3" x="4.9cm" y="4.8cm">MODERN FASHION FOR MEN, WOMEN AND CHILDREN</text></g><g id="4"><rect fill="white" height="1.9cm" stroke="red" width="7.6cm" x="9.2cm" y="3.0cm" /><image height="1.9cm" width="3.2cm" x="9.2cm" xlink:href="images/athleta.png" y="3.0cm" /><image height="2cm" width="2cm" x="12.899999999999999cm" xlink:href="images/athleta_logo_260x180.png" y="3.2cm" /><text class="text_style" id="text1" x="14.899999999999999cm" y="3.55cm">2,000 - 3,000 SF</text><text class="text_style" id="text2" x="14.899999999999999cm" y="3.75cm">DC/BALTIMORE REGION</text><text class="text_style" id="text3" x="13.1cm" y="4.8cm">SPORTS APPAREL</text></g><g id="5"><rect fill="white" height="1.9cm" stroke="red" width="7.6cm" x="17.4cm" y="3.0cm" /><image height="1.9cm" width="3.2cm" x="17.4cm" xlink:href="images/h and m.png" y="3.0cm" /><image height="2cm" width="2cm" x="21.099999999999998cm" xlink:href="images/athleta_logo_260x180.png" y="3.2cm" /><text class="text_style" id="text1" x="23.099999999999998cm" y="3.55cm">4,500 - 5,500 SF</text><text class="text_style" id="text2" x="23.099999999999998cm" y="3.75cm">WASHINGTON, DC REGION</text><text class="text_style" id="text3" x="21.299999999999997cm" y="4.8cm">APPAREL</text></g><g id="6"><rect fill="white" height="1.9cm" stroke="red" width="7.6cm" x="1cm" y="5.0cm" /><image height="1.9cm" width="3.2cm" x="1.0cm" xlink:href="images/intermix.png" y="5.0cm" /><image height="2cm" width="2cm" x="4.7cm" xlink:href="images/athleta_logo_260x180.png" y="5.2cm" /><text class="text_style" id="text1" x="6.7cm" y="5.55cm">3,000 - 4,000 SF</text><text class="text_style" id="text2" x="6.7cm" y="5.75cm">DC/BALTIMORE REGION</text><text class="text_style" id="text3" x="4.9cm" y="6.8cm">TOP DESIGNER AND LUXURY BRAND FASHION</text></g><g id="7"><rect fill="white" height="1.9cm" stroke="red" width="7.6cm" x="9.2cm" y="5.0cm" /><image height="1.9cm" width="3.2cm" x="9.2cm" xlink:href="images/old navy.png" y="5.0cm" /><image height="2cm" width="2cm" x="12.899999999999999cm" xlink:href="images/athleta_logo_260x180.png" y="5.2cm" /><text class="text_style" id="text1" x="14.899999999999999cm" y="5.55cm">12,500 - 17,000 SF</text><text class="text_style" id="text2" x="14.899999999999999cm" y="5.75cm">DC/BALTIMORE REGION</text><text class="text_style" id="text3" x="13.1cm" y="6.8cm">MODERN FASHION FOR MEN, WOMEN AND CHILDREN</text></g><g id="8"><rect fill="white" height="1.9cm" stroke="red" width="7.6cm" x="17.4cm" y="5.0cm" /><image height="1.9cm" width="3.2cm" x="17.4cm" xlink:href="images/athleta.png" y="5.0cm" /><image height="2cm" width="2cm" x="21.099999999999998cm" xlink:href="images/athleta_logo_260x180.png" y="5.2cm" /><text class="text_style" id="text1" x="23.099999999999998cm" y="5.55cm">2,000 - 3,000 SF</text><text class="text_style" id="text2" x="23.099999999999998cm" y="5.75cm">DC/BALTIMORE REGION</text><text class="text_style" id="text3" x="21.299999999999997cm" y="6.8cm">SPORTS APPAREL</text></g><g id="9"><rect fill="white" height="1.9cm" stroke="red" width="7.6cm" x="1cm" y="7.0cm" /><image height="1.9cm" width="3.2cm" x="1.0cm" xlink:href="images/h and m.png" y="7.0cm" /><image height="2cm" width="2cm" x="4.7cm" xlink:href="images/athleta_logo_260x180.png" y="7.2cm" /><text class="text_style" id="text1" x="6.7cm" y="7.55cm">4,500 - 5,500 SF</text><text class="text_style" id="text2" x="6.7cm" y="7.75cm">WASHINGTON, DC REGION</text><text class="text_style" id="text3" x="4.9cm" y="8.8cm">APPAREL</text></g><g id="10"><rect fill="white" height="1.9cm" stroke="red" width="7.6cm" x="9.2cm" y="7.0cm" /><image height="1.9cm" width="3.2cm" x="9.2cm" xlink:href="images/intermix.png" y="7.0cm" /><image height="2cm" width="2cm" x="12.899999999999999cm" xlink:href="images/athleta_logo_260x180.png" y="7.2cm" /><text class="text_style" id="text1" x="14.899999999999999cm" y="7.55cm">3,000 - 4,000 SF</text><text class="text_style" id="text2" x="14.899999999999999cm" y="7.75cm">DC/BALTIMORE REGION</text><text class="text_style" id="text3" x="13.1cm" y="8.8cm">TOP DESIGNER AND LUXURY BRAND FASHION</text></g><g id="11"><rect fill="white" height="1.9cm" stroke="red" width="7.6cm" x="17.4cm" y="7.0cm" /><image height="1.9cm" width="3.2cm" x="17.4cm" xlink:href="images/old navy.png" y="7.0cm" /><image height="2cm" width="2cm" x="21.099999999999998cm" xlink:href="images/athleta_logo_260x180.png" y="7.2cm" /><text class="text_style" id="text1" x="23.099999999999998cm" y="7.55cm">12,500 - 17,000 SF</text><text class="text_style" id="text2" x="23.099999999999998cm" y="7.75cm">DC/BALTIMORE REGION</text><text class="text_style" id="text3" x="21.299999999999997cm" y="8.8cm">MODERN FASHION FOR MEN, WOMEN AND CHILDREN</text></g><g id="12"><rect fill="white" height="1.9cm" stroke="red" width="7.6cm" x="1cm" y="9.0cm" /><image height="1.9cm" width="3.2cm" x="1.0cm" xlink:href="images/athleta.png" y="9.0cm" /><image height="2cm" width="2cm" x="4.7cm" xlink:href="images/athleta_logo_260x180.png" y="9.2cm" /><text class="text_style" id="text1" x="6.7cm" y="9.55cm">2,000 - 3,000 SF</text><text class="text_style" id="text2" x="6.7cm" y="9.75cm">DC/BALTIMORE REGION</text><text class="text_style" id="text3" x="4.9cm" y="10.8cm">SPORTS APPAREL</text></g><g id="13"><rect fill="white" height="1.9cm" stroke="red" width="7.6cm" x="9.2cm" y="9.0cm" /><image height="1.9cm" width="3.2cm" x="9.2cm" xlink:href="images/h and m.png" y="9.0cm" /><image height="2cm" width="2cm" x="12.899999999999999cm" xlink:href="images/athleta_logo_260x180.png" y="9.2cm" /><text class="text_style" id="text1" x="14.899999999999999cm" y="9.55cm">4,500 - 5,500 SF</text><text class="text_style" id="text2" x="14.899999999999999cm" y="9.75cm">WASHINGTON, DC REGION</text><text class="text_style" id="text3" x="13.1cm" y="10.8cm">APPAREL</text></g><g id="14"><rect fill="white" height="1.9cm" stroke="red" width="7.6cm" x="17.4cm" y="9.0cm" /><image height="1.9cm" width="3.2cm" x="17.4cm" xlink:href="images/intermix.png" y="9.0cm" /><image height="2cm" width="2cm" x="21.099999999999998cm" xlink:href="images/athleta_logo_260x180.png" y="9.2cm" /><text class="text_style" id="text1" x="23.099999999999998cm" y="9.55cm">3,000 - 4,000 SF</text><text class="text_style" id="text2" x="23.099999999999998cm" y="9.75cm">DC/BALTIMORE REGION</text><text class="text_style" id="text3" x="21.299999999999997cm" y="10.8cm">TOP DESIGNER AND LUXURY BRAND FASHION</text></g><g id="15"><rect fill="white" height="1.9cm" stroke="red" width="7.6cm" x="1cm" y="11.0cm" /><image height="1.9cm" width="3.2cm" x="1.0cm" xlink:href="images/old navy.png" y="11.0cm" /><image height="2cm" width="2cm" x="4.7cm" xlink:href="images/athleta_logo_260x180.png" y="11.2cm" /><text class="text_style" id="text1" x="6.7cm" y="11.55cm">12,500 - 17,000 SF</text><text class="text_style" id="text2" x="6.7cm" y="11.75cm">DC/BALTIMORE REGION</text><text class="text_style" id="text3" x="4.9cm" y="12.8cm">MODERN FASHION FOR MEN, WOMEN AND CHILDREN</text></g><g id="16"><rect fill="white" height="1.9cm" stroke="red" width="7.6cm" x="9.2cm" y="11.0cm" /><image height="1.9cm" width="3.2cm" x="9.2cm" xlink:href="images/athleta.png" y="11.0cm" /><image height="2cm" width="2cm" x="12.899999999999999cm" xlink:href="images/athleta_logo_260x180.png" y="11.2cm" /><text class="text_style" id="text1" x="14.899999999999999cm" y="11.55cm">2,000 - 3,000 SF</text><text class="text_style" id="text2" x="14.899999999999999cm" y="11.75cm">DC/BALTIMORE REGION</text><text class="text_style" id="text3" x="13.1cm" y="12.8cm">SPORTS APPAREL</text></g><g id="17"><rect fill="white" height="1.9cm" stroke="red" width="7.6cm" x="17.4cm" y="11.0cm" /><image height="1.9cm" width="3.2cm" x="17.4cm" xlink:href="images/h and m.png" y="11.0cm" /><image height="2cm" width="2cm" x="21.099999999999998cm" xlink:href="images/athleta_logo_260x180.png" y="11.2cm" /><text class="text_style" id="text1" x="23.099999999999998cm" y="11.55cm">4,500 - 5,500 SF</text><text class="text_style" id="text2" x="23.099999999999998cm" y="11.75cm">WASHINGTON, DC REGION</text><text class="text_style" id="text3" x="21.299999999999997cm" y="12.8cm">APPAREL</text></g><g id="18"><rect fill="white" height="1.9cm" stroke="red" width="7.6cm" x="1cm" y="13.0cm" /><image height="1.9cm" width="3.2cm" x="1.0cm" xlink:href="images/intermix.png" y="13.0cm" /><image height="2cm" width="2cm" x="4.7cm" xlink:href="images/athleta_logo_260x180.png" y="13.2cm" /><text class="text_style" id="text1" x="6.7cm" y="13.55cm">3,000 - 4,000 SF</text><text class="text_style" id="text2" x="6.7cm" y="13.75cm">DC/BALTIMORE REGION</text><text class="text_style" id="text3" x="4.9cm" y="14.8cm">TOP DESIGNER AND LUXURY BRAND FASHION</text></g><g id="19"><rect fill="white" height="1.9cm" stroke="red" width="7.6cm" x="9.2cm" y="13.0cm" /><image height="1.9cm" width="3.2cm" x="9.2cm" xlink:href="images/old navy.png" y="13.0cm" /><image height="2cm" width="2cm" x="12.899999999999999cm" xlink:href="images/athleta_logo_260x180.png" y="13.2cm" /><text class="text_style" id="text1" x="14.899999999999999cm" y="13.55cm">12,500 - 17,000 SF</text><text class="text_style" id="text2" x="14.899999999999999cm" y="13.75cm">DC/BALTIMORE REGION</text><text class="text_style" id="text3" x="13.1cm" y="14.8cm">MODERN FASHION FOR MEN, WOMEN AND CHILDREN</text></g></svg>